<?xml version="1.0" encoding="UTF-8" standalone="no"?>
<!-- Created with Inkpad (http://www.taptrix.com/) -->

<svg
   xmlns:inkpad="http://taptrix.com/inkpad/svg_extensions"
   xmlns:dc="http://purl.org/dc/elements/1.1/"
   xmlns:cc="http://creativecommons.org/ns#"
   xmlns:rdf="http://www.w3.org/1999/02/22-rdf-syntax-ns#"
   xmlns:svg="http://www.w3.org/2000/svg"
   xmlns="http://www.w3.org/2000/svg"
   xmlns:xlink="http://www.w3.org/1999/xlink"
   xmlns:sodipodi="http://sodipodi.sourceforge.net/DTD/sodipodi-0.dtd"
   xmlns:inkscape="http://www.inkscape.org/namespaces/inkscape"
   version="1.1"
   viewBox="0,0,512,512"
   id="svg25"
   sodipodi:docname="buttons.svg"
   inkscape:version="0.92.2 2405546, 2018-03-11">
  <sodipodi:namedview
     pagecolor="#ffffff"
     bordercolor="#666666"
     borderopacity="1"
     objecttolerance="10"
     gridtolerance="10"
     guidetolerance="10"
     inkscape:pageopacity="0"
     inkscape:pageshadow="2"
     inkscape:window-width="1920"
     inkscape:window-height="1057"
     id="namedview27"
     showgrid="false"
     inkscape:zoom="0.65186406"
     inkscape:cx="731.3893"
     inkscape:cy="241.81136"
     inkscape:window-x="0"
     inkscape:window-y="0"
     inkscape:window-maximized="1"
     inkscape:current-layer="svg25" />
  <defs
     id="defs12">
    <linearGradient
       id="LinearGradient"
       y2="58.798"
       gradientUnits="userSpaceOnUse"
       x2="195.28"
       gradientTransform="translate(-.49447 -2.3361)"
       y1="609.7"
       x1="524.76">
      <stop
         stop-color="#ffeef2"
         offset="0"
         id="stop2" />
      <stop
         stop-opacity="0"
         stop-color="#00ffff"
         offset="1"
         id="stop4" />
    </linearGradient>
    <linearGradient
       id="LinearGradient_2"
       y2="388.38"
       gradientUnits="userSpaceOnUse"
       x2="328.71"
       gradientTransform="translate(-.16284 .28830)"
       y1="113.18"
       x1="192.38">
      <stop
         stop-opacity=".33906"
         stop-color="#bd0000"
         offset="0"
         id="stop7" />
      <stop
         stop-color="#ffee00"
         offset="1"
         id="stop9" />
    </linearGradient>
    <linearGradient
       inkscape:collect="always"
       xlink:href="#LinearGradient"
       id="linearGradient876"
       gradientUnits="userSpaceOnUse"
       gradientTransform="translate(501.10358,-7.634066)"
       x1="524.76"
       y1="609.7"
       x2="195.28"
       y2="58.798" />
    <linearGradient
       inkscape:collect="always"
       xlink:href="#LinearGradient_2"
       id="linearGradient878"
       gradientUnits="userSpaceOnUse"
       gradientTransform="translate(501.43521,-5.009666)"
       x1="192.38"
       y1="113.18"
       x2="328.71"
       y2="388.38" />
  </defs>
  <g
     id="Layer"
     inkpad:layerName="Layer 1">
    <path
       d="m70.77 252.62c0-97.44 81.76-176.43 182.61-176.43 100.86 0.004 182.62 78.99 182.62 176.43s-81.76 176.43-182.62 176.43c-100.85 0-182.61-78.99-182.61-176.43z"
       fill="#d9ac32"
       id="path14" />
    <path
       d="m158.39 310.25c26.09-39.03 97.08-160.73 97.08-160.73l89.44 165.75c-189.09-1.46-192.21 3.49-186.52-5.02z"
       fill="#000000"
       id="path16" />
    <path
       d="m95.06 228.08c-4.085 23.36 202.3 40.94 255.57-99.95 0 0-79.06-62.93-183.48-2.34 0 0-59.14 28.23-72.09 102.29z"
       fill="url(#LinearGradient)"
       id="path18" />
    <path
       d="m92.85 252.24c0-84.25 73.55-152.54 164.27-152.54 90.72 0.002 154.45 64.67 154.45 148.91s-63.73 156.16-154.45 156.16-164.27-68.29-164.27-152.53z"
       fill="url(#LinearGradient_2)"
       id="path20" />
  </g>
  <metadata
     id="metadata23">
    <rdf:RDF>
      <cc:Work>
        <dc:format>image/svg+xml</dc:format>
        <dc:type
           rdf:resource="http://purl.org/dc/dcmitype/StillImage" />
        <cc:license
           rdf:resource="http://creativecommons.org/licenses/publicdomain/" />
        <dc:publisher>
          <cc:Agent
             rdf:about="http://openclipart.org/">
            <dc:title>Openclipart</dc:title>
          </cc:Agent>
        </dc:publisher>
        <dc:title></dc:title>
      </cc:Work>
      <cc:License
         rdf:about="http://creativecommons.org/licenses/publicdomain/">
        <cc:permits
           rdf:resource="http://creativecommons.org/ns#Reproduction" />
        <cc:permits
           rdf:resource="http://creativecommons.org/ns#Distribution" />
        <cc:permits
           rdf:resource="http://creativecommons.org/ns#DerivativeWorks" />
      </cc:License>
    </rdf:RDF>
  </metadata>
  <g
     id="g888"
     transform="translate(-124.25904,9.9001525)">
    <path
       style="fill:#d9ac32"
       inkscape:connector-curvature="0"
       d="m 572.36805,247.32203 c 0,-97.44 81.76,-176.429996 182.61,-176.429996 100.86,0.004 182.62,78.989996 182.62,176.429996 0,97.44 -81.76,176.43 -182.62,176.43 -100.85,0 -182.61,-78.99 -182.61,-176.43 z"
       id="path14-4" />
    <path
       style="fill:#000000"
       inkscape:connector-curvature="0"
       d="m 659.98805,179.37585 c 26.09,39.03 97.08,160.73 97.08,160.73 l 89.44,-165.75 c -189.09,1.46 -192.21,-3.49 -186.52,5.02 z"
       id="path16-1" />
    <path
       style="fill:url(#linearGradient876)"
       inkscape:connector-curvature="0"
       d="m 596.65805,222.78203 c -4.085,23.36 202.3,40.94 255.57,-99.95 0,0 -79.06,-62.929996 -183.48,-2.34 0,0 -59.14,28.23 -72.09,102.29 z"
       id="path18-3" />
    <path
       style="fill:url(#linearGradient878)"
       inkscape:connector-curvature="0"
       d="m 594.44805,246.94203 c 0,-84.25 73.55,-152.539996 164.27,-152.539996 90.72,0.002 154.45,64.669996 154.45,148.909996 0,84.24 -63.73,156.16 -154.45,156.16 -90.72,0 -164.27,-68.29 -164.27,-152.53 z"
       id="path20-0" />
  </g>
</svg>
